<svg xmlns="http://www.w3.org/2000/svg" xmlns:xlink="http://www.w3.org/1999/xlink" width="500" height="500"
  viewBox="0 0 500 500">
  <defs>
    <clipPath id="clip-Default_Profile">
      <rect width="500" height="500" />
    </clipPath>
  </defs>
  <g id="Default_Profile" data-name="Default Profile" clip-path="url(#clip-Default_Profile)">
    <rect width="500" height="500" fill="#2e33c4" />
    <path fill="white" id="user"
      d="M140.477,188.968A93.484,93.484,0,1,0,46.993,95.484,93.594,93.594,0,0,0,140.477,188.968Zm0-152.974a59.49,59.49,0,1,1-59.49,59.49A59.555,59.555,0,0,1,140.477,35.994Zm135.977,237.4v17.184a68.387,68.387,0,0,1-17.422,45.705,17,17,0,0,1-25.343-22.674,34.5,34.5,0,0,0,8.754-23.031V273.392c0-23.779-15.756-44.345-38.294-50.005a13,13,0,0,0-9.535,1.19,111.571,111.571,0,0,1-108.119.1,13.068,13.068,0,0,0-9.671-1.292c-22.589,5.66-38.328,26.227-38.328,50.005v17.184a34.464,34.464,0,0,0,8.754,23.031,17,17,0,1,1-25.325,22.674A68.388,68.388,0,0,1,4.5,290.576V273.392c0-39.382,26.329-73.512,64.029-82.98a47.1,47.1,0,0,1,34.657,4.64,77.478,77.478,0,0,0,74.753-.1,46.946,46.946,0,0,1,34.521-4.557C250.125,199.88,276.453,233.993,276.453,273.392Z"
      transform="translate(109.523 78.029)" />
  </g>
</svg>