<?xml version="1.0" encoding="UTF-8"?>
<svg id="Layer_1" data-name="Layer 1" xmlns="http://www.w3.org/2000/svg" xmlns:xlink="http://www.w3.org/1999/xlink"
  viewBox="0 0 500 500">
  <defs>
    <style>
      .cls-1 {
        fill: #ddd;
      }

      .cls-2 {
        fill: #8c6239;
      }

      .cls-3 {
        fill: #fff;
      }

      .cls-4 {
        fill: #efb486;
      }

      .cls-5 {
        fill: #ffdcaa;
      }

      .cls-6 {
        fill: #644E98;
      }

      .cls-7 {
        fill: #bf2500;
      }

      .cls-8 {
        fill: #df0006;
      }

      .cls-9 {
        fill: #ffedc9;
      }

      .cls-10 {
        fill: url(#linear-gradient);
      }

      .cls-11 {
        fill: #735aaf;
      }
    </style>
    <linearGradient id="linear-gradient" x1="247.28" y1="305.89" x2="247.28" y2="90.38" gradientUnits="userSpaceOnUse">
      <stop offset=".32" stop-color="#ffedc9" />
      <stop offset=".48" stop-color="#e7d3b4" />
      <stop offset=".65" stop-color="#d5c1a5" />
      <stop offset=".82" stop-color="#cab59c" />
      <stop offset="1" stop-color="#c7b299" />
    </linearGradient>
  </defs>
  <path class="cls-4" d="m267.81,499.32c-5.88.45-11.82.68-17.81.68-1,0-2-.01-2.99-.02,6.98-.05,13.92-.25,20.8-.66Z" />
  <path class="cls-1"
    d="m481.5,268.5c0,72.01-32.88,136.34-84.45,178.79,0-8.85,1.55-17.52,5.13-25.74,12.85-29.45,40.48-26.64,50.94-53.7,15.04-38.86-35.13-62.15-50.94-141.81-9.98-50.25,5.41-64.05-12.39-115.67-3.04-8.79-8.66-24.61-17.68-38.57,65.68,40.85,109.39,113.67,109.39,196.7Z" />
  <path class="cls-1"
    d="m121.99,95.92c-11.11,17.2-46.03,71.32-29.61,121.85,4.37,13.44,7.85,12.73,9.64,23.41,7.22,43.13-48.88,58.25-53.7,101.89-4.38,39.54,37.79,62.3,52.78,102.68-50.5-42.45-82.6-106.11-82.6-177.25,0-90.93,52.42-169.61,128.7-207.48-10.36,11.86-18.34,24.24-25.21,34.9Z" />
  <path class="cls-9"
    d="m360.87,366.49h0c-3.01,1.75-6.61,3.79-10.79,5.95-.41.21-.83.42-1.25.65-6.59,3.35-14.53,7-23.71,10.44h-.01c-7.86,2.96-16.61,5.76-26.19,8.1-.04.03-.05.03-.08.01-7.97,1.97-16.51,3.62-25.58,4.76-.22.03-.45.07-.67.08-6.99.88-14.29,1.46-21.88,1.66-1.57.05-3.14.08-4.7.08-.09.01-.15.01-.22,0-9.37.06-18.3-.46-26.74-1.41-.05-.02-.1-.02-.14-.02-9.7-1.1-18.76-2.73-27.09-4.71-.13-.03-.25-.07-.36-.09-9.55-2.25-18.14-4.95-25.68-7.7-.16-.05-.29-.11-.44-.15-9.26-3.4-16.92-6.88-22.74-9.78-.66-.31-1.28-.63-1.88-.93-.05-.01-.09-.05-.15-.07-.04.07-.1.15-.14.22-1.61-1.33-3.22-2.68-4.85-4.03.09-.46.18-.91.3-1.37.05-.3.13-.61.22-.92.15-.67.32-1.34.52-1.98.08-.34.17-.67.3-1.01h0s0-.03.01-.03c.11-.39.23-.8.38-1.18.16-.47.32-.92.51-1.37.15-.41.31-.83.48-1.24.7-1.66,1.5-3.27,2.42-4.83.21-.35.42-.71.64-1.05.58-.95,1.21-1.87,1.91-2.8.22-.3.45-.61.7-.9.24-.31.48-.61.73-.92,1.15-1.39,3.21-3.84,5.71-5.78,1.81-1.21,3.85-2.14,6.18-2.86,2.1-.67,4.45-1.15,7.05-1.49,5.92-1.16,35.48-.23,48.53-18.78.56-.8,1.09-1.63,1.56-2.46,9.24,7.6,20.59,12.1,32.86,12.1s22.54-4.08,31.54-11.04c.83,1.44,1.78,2.83,2.89,4.15,14.8,17.83,46.78,12.36,46.8,13.77,0,.03-.01.04-.02.07,3.67.26,11.51,1.35,19.31,6.81,9.96,6.99,13.62,16.8,14.85,20.96l-1.09,1.09Z" />
  <path class="cls-2"
    d="m187.99,491.6c-2.71-.75-5.39-1.55-8.06-2.4.04-1.8.07-3.58.09-5.35.01-.79.02-1.58.03-2.37.03-2.76.04-5.48.03-8.16,1.81,1.53,3.79,2.91,5.93,4.12.84,4.41,1.51,9.12,1.98,14.16Z" />
  <path class="cls-2"
    d="m334.26,484.18c-5.3,2.08-10.7,3.96-16.18,5.64l.8-11.09c5.76-3.73,10.4-8.68,13.4-14.39.26,6.49.55,13.24.9,20.23.36-.13.72-.26,1.08-.39Z" />
  <path class="cls-2"
    d="m453.12,367.85c-10.46,27.06-38.09,24.25-50.94,53.7-3.58,8.22-5.13,16.89-5.13,25.74-7.16,5.91-14.68,11.38-22.53,16.4-.4-9.39-.83-17.95-1.26-25.62-.04-.85-.1-1.7-.15-2.56.07-.07.11-.13.15-.18,8.47-11.71,6.49-31.41-3.46-52.69-.62-1.31-1.27-2.63-1.94-3.94l-5.49-13.71-.41.41c-1.23-4.16-4.89-13.97-14.85-20.96-7.8-5.46-15.64-6.55-19.31-6.81.01-.03.02-.04.02-.07-.02-1.41-32,4.06-46.8-13.77-1.11-1.32-2.06-2.71-2.89-4.15-1.06-1.85-1.9-3.8-2.58-5.83-1.27-3.8-1.92-7.86-2.1-12,8.95-2.65,17.49-6.52,25.44-11.47,18.79-11.64,34.35-29.22,44.8-50.54,3.79,1.78,7.96,2.75,12.37,2.75,17.1,0,30.97-14.79,30.97-33.04,0-17.02-12.07-31.04-27.61-32.84-4.94,4.82-12.23,9.79-11.63,17.01.69,8.28,11.09,11.43,11.01,19.28-.05,6.05-6.3,10.85-11.01,13.76,4.63-6.55,4.73-11.03,4.13-13.76-1.87-8.77-12.91-9.99-15.15-19.28-1.34-5.56,2.08-7.28,2.76-13.77,1.32-12.87-10.91-17.26-23.41-38.55-7.02-11.97-5.98-15.35-16.52-33.05-5.61-9.39-11.22-17.38-19.28-17.9-3.44-.22-6.12,1.01-6.88,1.38-10.25,5.04-9.02,21.24-13.78,35.8-2.94,9.04-9.37,21-24.78,33.04,1.81-5.58,3.62-13.08,4.14-22.03.65-11.45-1.03-20.98-2.75-27.53-5.28,31.25-16.06,41.65-24.8,45.43-15.98,6.94-29.65-6.29-46.8,4.13-5.41,3.29-10.5,10-20.66,23.41-7.8,10.3-8.74,13.49-8.26,16.52,1.44,9.07,14.61,10.7,15.14,17.9.26,3.57-2.57,8.56-15.14,15.14,3.84-3.42,7.78-8.01,6.88-12.39-1.22-6.01-10.39-5.98-15.15-12.39-5.81-7.87-.85-19.85,3.07-31.25-13.25,3.75-23.02,16.63-23.02,31.94,0,18.25,13.86,33.04,30.97,33.04,3.11,0,6.09-.48,8.91-1.38,11.1,22.02,27.71,39.93,47.66,51.27,7.37,4.2,15.17,7.5,23.33,9.78-.26,3.95-1.01,7.87-2.42,11.59-.62,1.64-1.36,3.24-2.25,4.77-.47.83-1,1.66-1.56,2.46-13.05,18.55-42.61,17.62-48.53,18.78-2.6.34-4.95.82-7.05,1.49-2.33.72-4.37,1.65-6.18,2.86-2.5,1.94-4.56,4.39-5.71,5.78-.25.31-.49.61-.73.92-.25.29-.48.6-.7.9-.7.93-1.33,1.85-1.91,2.8-.22.34-.43.7-.64,1.05-.92,1.56-1.72,3.17-2.42,4.83-.17.41-.33.83-.48,1.24-.19.45-.35.9-.51,1.37-.15.38-.27.79-.38,1.18-.01,0-.01.01-.01.02h0c-.13.35-.22.68-.3,1.02-.2.64-.37,1.31-.52,1.98-.09.31-.17.62-.22.92-.12.46-.21.91-.3,1.37-.4-.34-.81-.67-1.2-1.01-.71,4.65-1.42,9.3-2.13,13.95-.32,2.15-.65,4.32-.98,6.48-.25,1.64-.49,3.27-.74,4.9-5.89,17.19-4.85,32.72,3.16,41.46,1.47,1.58,3.13,2.91,4.79,3.98.27,4.03.52,8.21.71,12.53.03.68.06,1.38.09,2.1.03.72.05,1.46.08,2.2.03.73.05,1.48.07,2.23.02.82.04,1.66.06,2.52.02.68.03,1.38.05,2.08,0,.51.01,1.03.02,1.55.03,2.4.05,4.9.04,7.51-13.73-7.47-26.63-16.28-38.5-26.28-14.99-40.38-57.16-63.14-52.78-102.68,4.82-43.64,60.92-58.76,53.7-101.89-1.79-10.68-5.27-9.97-9.64-23.41-16.42-50.53,18.5-104.65,29.61-121.85,6.87-10.66,14.85-23.04,25.21-34.9,13.45-15.38,30.93-29.9,55.32-38.77,34.4-12.48,86.15-15.04,119.11,13.08,3.98,3.39,6.96,6.61,8.95,8.95,1.82-.01,4.47.09,7.58.7,14.58,2.83,25.7,14.04,33.95,26.82,9.02,13.96,14.64,29.78,17.68,38.57,17.8,51.62,2.41,65.42,12.39,115.67,15.81,79.66,65.98,102.95,50.94,141.81Z" />
  <path class="cls-10"
    d="m359.42,176.67c-4.94,4.82-12.23,9.79-11.63,17.01.69,8.28,11.09,11.43,11.01,19.28-.05,6.05-6.3,10.85-11.01,13.76,4.63-6.55,4.73-11.03,4.13-13.76-1.87-8.77-12.91-9.99-15.15-19.28-1.34-5.56,2.08-7.28,2.76-13.77,1.32-12.87-10.91-17.26-23.41-38.55-7.02-11.97-5.98-15.35-16.52-33.05-5.61-9.39-11.22-17.38-19.28-17.9-3.44-.22-6.12,1.01-6.88,1.38-10.25,5.04-9.02,21.24-13.78,35.8-2.94,9.04-9.37,21-24.78,33.04,1.81-5.58,3.62-13.08,4.14-22.03.65-11.45-1.03-20.98-2.75-27.53-5.28,31.25-16.06,41.65-24.8,45.43-15.98,6.94-29.65-6.29-46.8,4.13-5.41,3.29-10.5,10-20.66,23.41-7.8,10.3-8.74,13.49-8.26,16.52,1.44,9.07,14.61,10.7,15.14,17.9.26,3.57-2.57,8.56-15.14,15.14,3.84-3.42,7.78-8.01,6.88-12.39-1.22-6.01-10.39-5.98-15.15-12.39-5.81-7.87-.85-19.85,3.07-31.25-13.25,3.75-23.02,16.63-23.02,31.94,0,18.25,13.86,33.04,30.97,33.04,3.11,0,6.09-.48,8.91-1.38,11.1,22.02,27.71,39.93,47.66,51.27,7.37,4.2,15.17,7.5,23.33,9.78,8.6,2.41,17.57,3.67,26.82,3.67,9.74,0,19.21-1.42,28.23-4.08,8.95-2.65,17.49-6.52,25.44-11.47,18.79-11.64,34.35-29.22,44.8-50.54,3.79,1.78,7.96,2.75,12.37,2.75,17.1,0,30.97-14.79,30.97-33.04,0-17.02-12.07-31.04-27.61-32.84Zm-87.8,90.96c-2.18,1.14-4.1,1.35-6,1.06-4.86-.73-9.61-4.69-18.36-4.69-11.22,0-15.37,6.21-22.53,4.03-.03-.01-.06-.02-.09-.03-5.92-1.85-10.5-9.39-8.7-17.72.42-1.95,1.18-3.66,2.2-5.17h0c1.6-2.4,3.83-4.27,6.37-5.74,9-5.22,21.8-5.35,23.62-5.36,3.23-.04,27.08-.29,30.45,14.1,1.62,6.93-1.63,16.75-6.96,19.52Z" />
  <path class="cls-9"
    d="m180.08,473.32c.01,2.68,0,5.4-.03,8.16-.01.79-.02,1.58-.03,2.37-.02,1.77-.05,3.55-.09,5.35-14.07-4.46-27.57-10.23-40.33-17.17.01-2.61,0-5.11-.04-7.51-.01-.52-.02-1.04-.02-1.55-.02-.7-.03-1.4-.05-2.08-.02-.86-.04-1.7-.06-2.52-.02-.75-.04-1.5-.07-2.23-.03-.74-.05-1.48-.08-2.2-.03-.72-.06-1.42-.09-2.1-.19-4.32-.44-8.5-.71-12.53,4.98,3.2,10.01,4.21,10.36,4.27,7.65,1.45,14.76-.7,20.79-3.75-1,2.95-1.52,6.06-1.52,9.26,0,9.45,4.57,18.02,11.97,24.23Z" />
  <path class="cls-5"
    d="m278.13,319.64c-9,6.96-19.85,11.04-31.54,11.04-12.27,0-23.62-4.5-32.86-12.1.89-1.53,1.63-3.13,2.25-4.77,1.41-3.72,2.16-7.64,2.42-11.59,8.6,2.41,17.57,3.67,26.82,3.67,9.74,0,19.21-1.42,28.23-4.08.18,4.14.83,8.2,2.1,12,.68,2.03,1.52,3.98,2.58,5.83Z" />
  <path class="cls-9"
    d="m374.52,463.69c-12.63,8.08-26.11,14.96-40.26,20.49-.36.13-.72.26-1.08.39-.35-6.99-.64-13.74-.9-20.23,2.45-4.65,3.81-9.81,3.81-15.25,0-3.17-.46-6.24-1.34-9.17,6.77,3.91,16.62,8.18,26.12,5.04,6.87-2.27,10.85-7.52,12.24-9.45.05.86.11,1.71.15,2.56.43,7.67.86,16.23,1.26,25.62Z" />
  <path class="cls-11"
    d="m369.8,382.64c-1.03.55-2.13.99-3.27,1.28-1.14.29-2.35.46-3.59.46-3.41,0-6.53-1.19-9-3.16.04.36.05.72.05,1.09,0,7.98-6.48,14.46-14.46,14.46-4.63,0-8.76-2.18-11.39-5.57-.13-.17-.25-.33-.37-.49.02.19.03.4.04.61.01.2.01.42.01.63,0,7.99-6.46,14.46-14.46,14.46-4.81,0-9.08-2.36-11.7-5.99-.11,7.88-6.53,14.25-14.45,14.25-6.02,0-11.18-3.68-13.35-8.93-1.29,6.65-7.15,11.69-14.2,11.69-6.43,0-11.88-4.22-13.76-10.04-1.87,5.82-7.33,10.04-13.77,10.04-7.38,0-13.46-5.55-14.34-12.69-2.27,5.04-7.32,8.55-13.2,8.55-7.77,0-14.12-6.14-14.43-13.85-2.31,4.93-7.31,8.34-13.1,8.34-7.99,0-14.46-6.47-14.46-14.45,0-.41.01-.85.05-1.24-2.61,3.67-6.91,6.05-11.76,6.05-.36,0-.72-.01-1.06-.04h-.13c-.34-.03-.68-.07-1.01-.12-.03,0-.04-.01-.06-.01-.31-.05-.61-.1-.91-.17-.13-.04-.27-.07-.39-.09-.52-.14-1.03-.31-1.53-.5-.18-.06-.36-.12-.52-.21-.47-.19-.91-.39-1.33-.64-.19-.1-.36-.21-.55-.31-.2-.12-.39-.25-.59-.38-.19-.13-.37-.26-.56-.4-.35-.26-.69-.54-1.03-.84-.02-.02-.03-.03-.06-.05-.16-.16-.32-.31-.48-.47-1.45-1.44-2.58-3.17-3.31-5.11-.26-.67-.47-1.38-.61-2.1-1.61,1.13-3.47,1.93-5.49,2.27-.25,1.64-.49,3.27-.74,4.9-5.89,17.19-4.85,32.72,3.16,41.46,1.47,1.58,3.13,2.91,4.79,3.98,4.98,3.2,10.01,4.21,10.36,4.27,7.65,1.45,14.76-.7,20.79-3.75-1,2.95-1.52,6.06-1.52,9.26,0,9.45,4.57,18.02,11.97,24.23,1.81,1.53,3.79,2.91,5.93,4.12.84,4.41,1.51,9.12,1.98,14.16,18.7,5.19,38.36,8.09,58.65,8.37.12.01.24.01.37.01,6.98-.05,13.92-.25,20.8-.66.04,0,.08,0,.11-.01,11.94-.91,23.63-2.73,34.99-5.4,2.88-.66,5.73-1.39,8.57-2.17,1.53-.42,3.07-.86,4.59-1.32.55-.15,1.09-.31,1.63-.48.13-.04.25-.08.38-.12l.8-11.09c5.76-3.73,10.4-8.68,13.4-14.39,2.45-4.65,3.81-9.81,3.81-15.25,0-3.17-.46-6.24-1.34-9.17,6.77,3.91,16.62,8.18,26.12,5.04,6.87-2.27,10.85-7.52,12.24-9.45.07-.07.11-.13.15-.18,8.47-11.71,6.49-31.41-3.46-52.69Zm-119.09,105.69c-11.6,0-22.16-2.3-30.1-6.1,14.95-3.49,26.46-13.84,29.38-26.71,2.64,12.98,13.15,23.65,27.16,28.28-7.4,2.85-16.53,4.53-26.44,4.53Z" />
  <path class="cls-6"
    d="m277.15,483.8c-7.4,2.85-16.53,4.53-26.44,4.53-11.6,0-22.16-2.3-30.1-6.1,14.95-3.49,26.46-13.84,29.38-26.71,2.64,12.98,13.15,23.65,27.16,28.28Z" />
  <path class="cls-3"
    d="m369.8,382.64c-1.03.55-2.13.99-3.27,1.28-1.14.29-2.35.46-3.59.46-3.41,0-6.53-1.19-9-3.16.04.36.05.72.05,1.09,0,7.98-6.48,14.46-14.46,14.46-4.63,0-8.76-2.18-11.39-5.57-.13-.17-.25-.33-.37-.49.02.19.03.4.04.61.01.2.01.42.01.63,0,7.99-6.46,14.46-14.46,14.46-4.81,0-9.08-2.36-11.7-5.99-.11,7.88-6.53,14.25-14.45,14.25-6.02,0-11.18-3.68-13.35-8.93-1.29,6.65-7.15,11.69-14.2,11.69-6.43,0-11.88-4.22-13.76-10.04-1.87,5.82-7.33,10.04-13.77,10.04-7.38,0-13.46-5.55-14.34-12.69-2.27,5.04-7.32,8.55-13.2,8.55-7.77,0-14.12-6.14-14.43-13.85-2.31,4.93-7.31,8.34-13.1,8.34-7.99,0-14.46-6.47-14.46-14.45,0-.41.01-.85.05-1.24-2.61,3.67-6.91,6.05-11.76,6.05-.36,0-.72-.01-1.06-.04h-.13c-.34-.03-.68-.07-1.01-.12-.03,0-.04-.01-.06-.01-.31-.05-.61-.1-.91-.17-.13-.04-.27-.07-.39-.09-.52-.14-1.03-.31-1.53-.5-.18-.06-.36-.12-.52-.21-.47-.19-.91-.39-1.33-.64-.19-.1-.36-.21-.55-.31-.2-.12-.39-.25-.59-.38-.19-.13-.37-.26-.56-.4-.35-.26-.69-.54-1.03-.84-.02-.02-.03-.03-.06-.05-.16-.16-.32-.31-.48-.47-1.45-1.44-2.58-3.17-3.31-5.11-.26-.67-.47-1.38-.61-2.1-1.61,1.13-3.47,1.93-5.49,2.27.33-2.16.66-4.33.98-6.48.71-4.65,1.42-9.3,2.13-13.95.39.34.8.67,1.2,1.01,1.63,1.35,3.24,2.7,4.85,4.03.04-.07.1-.15.14-.22.06.02.1.06.15.07.6.3,1.22.62,1.88.93,5.82,2.9,13.48,6.38,22.74,9.78.15.04.28.1.44.15,7.54,2.75,16.13,5.45,25.68,7.7.11.02.23.06.36.09,8.33,1.98,17.39,3.61,27.09,4.71.04,0,.09,0,.14.02,8.44.95,17.37,1.47,26.74,1.41.07.01.13.01.22,0,1.56,0,3.13-.03,4.7-.08,7.59-.2,14.89-.78,21.88-1.66.22-.01.45-.05.67-.08,9.07-1.14,17.61-2.79,25.58-4.76.03.02.04.02.08-.01,9.58-2.34,18.33-5.14,26.19-8.1h.01c9.18-3.44,17.12-7.09,23.71-10.44.42-.23.84-.44,1.25-.65,4.18-2.16,7.78-4.2,10.79-5.96h0s1.5-1.49,1.5-1.49l5.49,13.71c.67,1.31,1.32,2.63,1.94,3.94Z" />
  <path class="cls-7"
    d="m271.62,267.63c-2.18,1.14-4.1,1.35-6,1.06-4.86-.73-9.61-4.69-18.36-4.69-11.22,0-15.37,6.21-22.53,4.03-.03-.01-.06-.02-.09-.03-5.92-1.85-10.5-9.39-8.7-17.72.42-1.95,1.18-3.66,2.2-5.17h0c1.6-2.4,3.83-4.27,6.37-5.74,9-5.22,21.8-5.35,23.62-5.36,3.23-.04,27.08-.29,30.45,14.1,1.62,6.93-1.63,16.75-6.96,19.52Z" />
  <polygon class="cls-8" points="13 25.18 50.15 7 75.08 86.01 60.43 92.37 13 25.18" />
  <circle class="cls-8" cx="78.61" cy="116.09" r="17.39" />
</svg>