<?xml version="1.0" encoding="UTF-8"?>
<svg id="Layer_1" data-name="Layer 1" xmlns="http://www.w3.org/2000/svg" viewBox="0 0 500 500">
  <defs>
    <style>
      .cls-1 {
        fill: #ddd;
      }

      .cls-2 {
        fill: #8c6239;
      }

      .cls-3 {
        fill: #fff;
      }

      .cls-4 {
        fill: #f15a24;
      }

      .cls-5 {
        fill: #efb486;
      }

      .cls-6 {
        fill: #a67c52;
      }

      .cls-7 {
        fill: #ffdcaa;
      }

      .cls-8 {
        fill: #603813;
      }

      .cls-9 {
        fill: #644E98;
      }

      .cls-10 {
        fill: #42210b;
      }

      .cls-11 {
        fill: #bf2500;
      }

      .cls-12 {
        fill: #ffedc9;
      }

      .cls-13 {
        fill: #fbffaa;
      }

      .cls-14 {
        fill: #735AAF;
      }
    </style>
  </defs>
  <path class="cls-5" d="m267.81,499.32c-5.88.45-11.82.68-17.81.68-1,0-2-.01-2.99-.02,6.98-.05,13.92-.25,20.8-.66Z" />
  <path class="cls-1"
    d="m481.5,268.5c0,72.01-32.88,136.34-84.45,178.79,0-8.85,1.55-17.52,5.13-25.74,12.85-29.45,40.48-26.64,50.94-53.7,15.04-38.86-35.13-62.15-50.94-141.81-9.98-50.25,5.41-64.05-12.39-115.67-3.04-8.79-8.66-24.61-17.68-38.57,65.68,40.85,109.39,113.67,109.39,196.7Z" />
  <path class="cls-1"
    d="m121.99,95.92c-11.11,17.2-46.03,71.32-29.61,121.85,4.37,13.44,7.85,12.73,9.64,23.41,7.22,43.13-48.88,58.25-53.7,101.89-4.38,39.54,37.79,62.3,52.78,102.68-50.5-42.45-82.6-106.11-82.6-177.25,0-90.93,52.42-169.61,128.7-207.48-10.36,11.86-18.34,24.24-25.21,34.9Z" />
  <path class="cls-5" d="m218.29,248.77c.04.5.09,1,.15,1.49-.03-.24-.06-.47-.08-.71-.03-.26-.05-.52-.07-.78Z" />
  <path class="cls-5"
    d="m242.99,281.57c-.09-.02-.19-.03-.28-.05-.08-.02-.16-.03-.24-.05.09.02.19.04.28.05.08.02.16.03.24.05Z" />
  <path class="cls-5" d="m271.5,254.22c.09-.44.17-.88.24-1.32-.05.31-.1.62-.16.92-.02.14-.05.27-.08.4Z" />
  <path class="cls-5"
    d="m272.07,250.52c-.01.11-.02.23-.03.34,0,.04,0,.09-.02.14.01-.07.02-.14.02-.21v-.03c.02-.08.03-.16.03-.24Z" />
  <path class="cls-12"
    d="m360.87,366.49h0c-3.01,1.75-6.61,3.79-10.79,5.95-.41.21-.83.42-1.25.65-6.59,3.35-14.53,7-23.71,10.44h-.01c-7.86,2.96-16.61,5.76-26.19,8.1-.04.03-.05.03-.08.01-7.97,1.97-16.51,3.62-25.58,4.76-.22.03-.45.07-.67.08-6.99.88-14.29,1.46-21.88,1.66-1.57.05-3.14.08-4.7.08-.09.01-.15.01-.22,0-9.37.06-18.3-.46-26.74-1.41-.05-.02-.1-.02-.14-.02-9.7-1.1-18.76-2.73-27.09-4.71-.13-.03-.25-.07-.36-.09-9.55-2.25-18.14-4.95-25.68-7.7-.16-.05-.29-.11-.44-.15-9.26-3.4-16.92-6.88-22.74-9.78-.66-.31-1.28-.63-1.88-.93-.05-.01-.09-.05-.15-.07-.04.07-.1.15-.14.22-1.61-1.33-3.22-2.68-4.85-4.03.09-.46.18-.91.3-1.37.05-.3.13-.61.22-.92.15-.67.32-1.34.52-1.98.08-.34.17-.67.3-1.01h0s0-.03.01-.03c.11-.39.23-.8.38-1.18.16-.47.32-.92.51-1.37.15-.41.31-.83.48-1.24.7-1.66,1.5-3.27,2.42-4.83.21-.35.42-.71.64-1.05.58-.95,1.21-1.87,1.91-2.8.22-.3.45-.61.7-.9.24-.31.48-.61.73-.92,1.15-1.39,3.21-3.84,5.71-5.78,1.81-1.21,3.85-2.14,6.18-2.86,2.1-.67,4.45-1.15,7.05-1.49,5.92-1.16,35.48-.23,48.53-18.78.56-.8,1.09-1.63,1.56-2.46,9.24,7.6,20.59,12.1,32.86,12.1s22.54-4.08,31.54-11.04c.83,1.44,1.78,2.83,2.89,4.15,14.8,17.83,46.78,12.36,46.8,13.77,0,.03-.01.04-.02.07,3.67.26,11.51,1.35,19.31,6.81,9.96,6.99,13.62,16.8,14.85,20.96l-1.09,1.09Z" />
  <path class="cls-13" d="m218.29,248.77c.04.5.09,1,.15,1.49-.03-.24-.06-.47-.08-.71-.03-.26-.05-.52-.07-.78Z" />
  <path class="cls-13"
    d="m242.99,281.57c-.09-.02-.19-.03-.28-.05-.08-.02-.16-.03-.24-.05.09.02.19.04.28.05.08.02.16.03.24.05Z" />
  <path class="cls-13" d="m271.74,252.9c-.05.31-.1.62-.16.92-.02.14-.05.27-.08.4.09-.44.17-.88.24-1.32Z" />
  <path class="cls-2"
    d="m187.99,491.6c-2.71-.75-5.39-1.55-8.06-2.4.04-1.8.07-3.58.09-5.35.01-.79.02-1.58.03-2.37.03-2.76.04-5.48.03-8.16,1.81,1.53,3.79,2.91,5.93,4.12.84,4.41,1.51,9.12,1.98,14.16Z" />
  <path class="cls-2"
    d="m334.26,484.18c-5.3,2.08-10.7,3.96-16.18,5.64l.8-11.09c5.76-3.73,10.4-8.68,13.4-14.39.26,6.49.55,13.24.9,20.23.36-.13.72-.26,1.08-.39Z" />
  <path class="cls-2"
    d="m453.12,367.85c-10.46,27.06-38.09,24.25-50.94,53.7-3.58,8.22-5.13,16.89-5.13,25.74-7.16,5.91-14.68,11.38-22.53,16.4-.4-9.39-.83-17.95-1.26-25.62-.04-.85-.1-1.7-.15-2.56.07-.07.11-.13.15-.18,8.47-11.71,6.49-31.41-3.46-52.69-.62-1.31-1.27-2.63-1.94-3.94l-5.49-13.71-.41.41c-1.23-4.16-4.89-13.97-14.85-20.96-7.8-5.46-15.64-6.55-19.31-6.81.01-.03.02-.04.02-.07-.02-1.41-32,4.06-46.8-13.77-1.11-1.32-2.06-2.71-2.89-4.15-1.06-1.85-1.9-3.8-2.58-5.83-1.27-3.8-1.92-7.86-2.1-12,8.95-2.65,17.49-6.52,25.44-11.47,18.79-11.64,34.35-29.22,44.8-50.54,3.79,1.78,7.96,2.75,12.37,2.75,17.1,0,30.97-14.79,30.97-33.04,0-17.02-12.07-31.04-27.61-32.84-4.94,4.82-12.23,9.79-11.63,17.01.69,8.28,11.09,11.43,11.01,19.28-.05,6.05-6.3,10.85-11.01,13.76,4.63-6.55,4.73-11.03,4.13-13.76-1.87-8.77-12.91-9.99-15.15-19.28-1.34-5.56,2.08-7.28,2.76-13.77,1.32-12.87-10.91-17.26-23.41-38.55-7.02-11.97-5.98-15.35-16.52-33.05-5.61-9.39-11.22-17.38-19.28-17.9-3.44-.22-6.12,1.01-6.88,1.38-10.25,5.04-9.02,21.24-13.78,35.8-2.94,9.04-9.37,21-24.78,33.04,1.81-5.58,3.62-13.08,4.14-22.03.65-11.45-1.03-20.98-2.75-27.53-5.28,31.25-16.06,41.65-24.8,45.43-15.98,6.94-29.65-6.29-46.8,4.13-5.41,3.29-10.5,10-20.66,23.41-7.8,10.3-8.74,13.49-8.26,16.52,1.44,9.07,14.61,10.7,15.14,17.9.26,3.57-2.57,8.56-15.14,15.14,3.84-3.42,7.78-8.01,6.88-12.39-1.22-6.01-10.39-5.98-15.15-12.39-5.81-7.87-.85-19.85,3.07-31.25-13.25,3.75-23.02,16.63-23.02,31.94,0,18.25,13.86,33.04,30.97,33.04,3.11,0,6.09-.48,8.91-1.38,11.1,22.02,27.71,39.93,47.66,51.27,7.37,4.2,15.17,7.5,23.33,9.78-.26,3.95-1.01,7.87-2.42,11.59-.62,1.64-1.36,3.24-2.25,4.77-.47.83-1,1.66-1.56,2.46-13.05,18.55-42.61,17.62-48.53,18.78-2.6.34-4.95.82-7.05,1.49-2.33.72-4.37,1.65-6.18,2.86-2.5,1.94-4.56,4.39-5.71,5.78-.25.31-.49.61-.73.92-.25.29-.48.6-.7.9-.7.93-1.33,1.85-1.91,2.8-.22.34-.43.7-.64,1.05-.92,1.56-1.72,3.17-2.42,4.83-.17.41-.33.83-.48,1.24-.19.45-.35.9-.51,1.37-.15.38-.27.79-.38,1.18-.01,0-.01.01-.01.02h0c-.13.35-.22.68-.3,1.02-.2.64-.37,1.31-.52,1.98-.09.31-.17.62-.22.92-.12.46-.21.91-.3,1.37-.4-.34-.81-.67-1.2-1.01-.71,4.65-1.42,9.3-2.13,13.95-.32,2.15-.65,4.32-.98,6.48-.25,1.64-.49,3.27-.74,4.9-5.89,17.19-4.85,32.72,3.16,41.46,1.47,1.58,3.13,2.91,4.79,3.98.27,4.03.52,8.21.71,12.53.03.68.06,1.38.09,2.1.03.72.05,1.46.08,2.2.03.73.05,1.48.07,2.23.02.82.04,1.66.06,2.52.02.68.03,1.38.05,2.08,0,.51.01,1.03.02,1.55.03,2.4.05,4.9.04,7.51-13.73-7.47-26.63-16.28-38.5-26.28-14.99-40.38-57.16-63.14-52.78-102.68,4.82-43.64,60.92-58.76,53.7-101.89-1.79-10.68-5.27-9.97-9.64-23.41-16.42-50.53,18.5-104.65,29.61-121.85,6.87-10.66,14.85-23.04,25.21-34.9,13.45-15.38,30.93-29.9,55.32-38.77,34.4-12.48,86.15-15.04,119.11,13.08,3.98,3.39,6.96,6.61,8.95,8.95,1.82-.01,4.47.09,7.58.7,14.58,2.83,25.7,14.04,33.95,26.82,9.02,13.96,14.64,29.78,17.68,38.57,17.8,51.62,2.41,65.42,12.39,115.67,15.81,79.66,65.98,102.95,50.94,141.81Z" />
  <path class="cls-6" d="m218.29,248.77c.04.5.09,1,.15,1.49-.03-.24-.06-.47-.08-.71-.03-.26-.05-.52-.07-.78Z" />
  <path class="cls-6"
    d="m242.99,281.57c-.09-.02-.19-.03-.28-.05-.08-.02-.16-.03-.24-.05.09.02.19.04.28.05.08.02.16.03.24.05Z" />
  <path class="cls-6" d="m271.74,252.9c-.05.31-.1.62-.16.92-.02.14-.05.27-.08.4.09-.44.17-.88.24-1.32Z" />
  <path class="cls-12"
    d="m272.04,250.76v.1c.01-.11.02-.23.03-.34,0,.08-.01.16-.03.24Zm-29.29,30.76c-.09,0-.19-.03-.28-.05.08.02.16.03.24.05.09.02.19.03.28.05-.08-.02-.16-.03-.24-.05Z" />
  <path class="cls-12"
    d="m359.42,176.67c-4.94,4.82-12.23,9.79-11.63,17.01.69,8.28,11.09,11.43,11.01,19.28-.05,6.05-6.3,10.85-11.01,13.76,4.63-6.55,4.73-11.03,4.13-13.76-1.87-8.77-12.91-9.99-15.15-19.28-1.34-5.56,2.08-7.28,2.76-13.77,1.32-12.87-10.91-17.26-23.41-38.55-7.02-11.97-5.98-15.35-16.52-33.05-5.61-9.39-11.22-17.38-19.28-17.9-3.44-.22-6.12,1.01-6.88,1.38-10.25,5.04-9.02,21.24-13.78,35.8-2.94,9.04-9.37,21-24.78,33.04,1.81-5.58,3.62-13.08,4.14-22.03.65-11.45-1.03-20.98-2.75-27.53-5.28,31.25-16.06,41.65-24.8,45.43-15.98,6.94-29.65-6.29-46.8,4.13-5.41,3.29-10.5,10-20.66,23.41-7.8,10.3-8.74,13.49-8.26,16.52,1.44,9.07,14.61,10.7,15.14,17.9.26,3.57-2.57,8.56-15.14,15.14,3.84-3.42,7.78-8.01,6.88-12.39-1.22-6.01-10.39-5.98-15.15-12.39-5.81-7.87-.85-19.85,3.07-31.25-13.25,3.75-23.02,16.63-23.02,31.94,0,18.25,13.86,33.04,30.97,33.04,3.11,0,6.09-.48,8.91-1.38,11.1,22.02,27.71,39.93,47.66,51.27,7.37,4.2,15.17,7.5,23.33,9.78,8.6,2.41,17.57,3.67,26.82,3.67,9.74,0,19.21-1.42,28.23-4.08,8.95-2.65,17.49-6.52,25.44-11.47,18.79-11.64,34.35-29.22,44.8-50.54,3.79,1.78,7.96,2.75,12.37,2.75,17.1,0,30.97-14.79,30.97-33.04,0-17.02-12.07-31.04-27.61-32.84Zm-44.67-21.55c3.02,2.96,4.65,6.2,5.51,8.27-8.01-6.48-14.68-8.04-19.29-8.27-11.24-.55-20.65,2.76-20.65,2.76-3.76,1.32-7.83,3.28-11.01,1.38-1.33-.8-2.97-2.55-2.75-4.14.88-6.49,33.34-14.5,48.19,0Zm-97.88,50.95h-6.89c.34-8.67-6.12-15.87-13.76-16.52-8.53-.75-16.8,6.76-16.53,16.52h-6.88c-.05-2.37.25-4.65.85-6.8-1.98-1.02-4.41-2.74-6.36-5.59-3.71-5.46-2.94-11.14-2.75-12.39,1.01,1.96,3.07,5.32,6.89,8.26,1.85,1.41,3.7,2.41,5.29,3.07,4.34-6.4,11.71-10.44,19.49-9.96,11.44.7,21.01,10.99,20.65,23.41Zm55.48,39.98c0,.44-.02.88-.04,1.31-.02.53-.05,1.06-.09,1.58-.02.35-.05.7-.09,1.04-.01.09-.01.18-.03.27,0,.09,0,.18-.03.27-.01.11-.02.23-.03.34,0,.04,0,.09-.02.14-.01.11-.03.21-.04.31-.04.36-.09.71-.15,1.06-.03.18-.06.36-.09.53-.05.31-.1.62-.16.92-.02.14-.05.27-.08.4-.04.24-.09.48-.15.71-.02.12-.05.24-.08.36-.08.39-.17.76-.27,1.13-.04.19-.09.37-.15.56,0,.07-.03.14-.05.2-.04.13-.07.26-.11.38,0,.02-.01.04-.02.06-.11.4-.23.79-.36,1.18-.15.51-.32,1-.5,1.48-.06.18-.12.36-.19.53-.01.03-.02.05-.03.07-.1.27-.2.54-.31.8-.21.54-.44,1.06-.67,1.57-.02.05-.04.09-.06.14-.45.98-.93,1.92-1.43,2.83-.01.01-.01.02-.02.03-.26.47-.52.92-.8,1.37-.21.35-.43.69-.65,1.03-.22.33-.44.66-.66.97-.05.08-.11.16-.16.23-.1.14-.2.28-.3.41-.07.09-.13.18-.2.27-.15.2-.3.4-.46.6-.25.32-.5.64-.76.95-.07.08-.13.15-.2.23-.15.18-.31.36-.47.54-.11.13-.22.25-.33.37-.1.11-.19.21-.29.31-.07.08-.15.16-.22.23-.17.18-.34.36-.51.53-.53.53-1.06,1.02-1.59,1.49-.18.16-.36.32-.54.46-.11.09-.21.18-.31.26-.16.13-.32.25-.47.37-.02.02-.04.03-.05.04-.13.1-.26.2-.38.29-.12.09-.24.18-.35.26-.04.04-.08.06-.12.09-.18.13-.36.25-.53.37-.31.22-.63.43-.94.62-.2.13-.41.25-.61.37s-.4.23-.59.34c-.09.05-.18.1-.26.14-.13.07-.26.14-.39.21h-.01s-.03.01-.04.02c-.21.11-.42.21-.63.31-.16.08-.33.15-.5.23-.2.09-.39.17-.59.25-.03.01-.06.02-.08.03-.06.03-.11.05-.16.07-.09.03-.17.06-.25.09-.08.04-.16.06-.24.09-.21.08-.42.15-.62.22-.13.04-.25.08-.38.12-.2.06-.39.12-.58.17-.38.1-.77.2-1.15.27-.17.04-.35.07-.52.1-.21.03-.41.07-.62.09l-.21.03s-.09.01-.14.01c-.06,0-.12.02-.18.02-.07.01-.14.02-.21.02-.16.02-.32.03-.48.03-.16.01-.31.02-.47.02h-.36c-.24,0-.49-.01-.75-.02-.11,0-.22,0-.33-.02-.03,0-.06-.01-.09-.01-.16-.01-.32-.03-.49-.05-.15-.01-.3-.03-.45-.05-.1-.02-.21-.03-.32-.05-.04-.01-.08-.02-.12-.02-.09-.02-.19-.03-.28-.05-.08-.02-.16-.03-.24-.05-.13-.02-.28-.05-.42-.09-.11-.02-.22-.05-.34-.08-.17-.03-.34-.08-.51-.13-.09-.02-.18-.04-.26-.07-.22-.06-.44-.13-.67-.2-.09-.03-.17-.06-.26-.09-.09-.03-.18-.06-.26-.09-.03-.01-.06-.02-.09-.04-.05-.02-.1-.03-.15-.05-.08-.03-.16-.06-.24-.09-.1-.03-.2-.07-.3-.12-.43-.16-.87-.35-1.3-.56-.24-.11-.48-.23-.72-.36-.52-.26-1.03-.54-1.55-.86-.2-.12-.4-.24-.6-.37-.63-.4-1.25-.83-1.87-1.3-.1-.08-.21-.16-.31-.24-.31-.23-.61-.48-.91-.73-.2-.17-.4-.34-.6-.52-.1-.09-.2-.18-.3-.27-.89-.8-1.76-1.67-2.6-2.61-.19-.21-.37-.42-.55-.64-.37-.43-.73-.87-1.08-1.32-.17-.23-.35-.46-.52-.69-.23-.31-.45-.62-.67-.94-.09-.13-.18-.25-.26-.38-.04-.06-.08-.12-.12-.18-.2-.3-.4-.6-.59-.91-.22-.35-.44-.71-.65-1.08-.12-.19-.23-.39-.34-.59-.17-.31-.34-.62-.51-.94-.03-.06-.06-.12-.1-.19-.23-.44-.45-.9-.67-1.36-.15-.32-.3-.64-.44-.97-.07-.16-.14-.32-.21-.48-.21-.49-.41-1-.6-1.5-.09-.22-.17-.43-.24-.65-.16-.43-.3-.86-.44-1.29-.12-.36-.23-.72-.34-1.08-.01-.04-.02-.08-.03-.11-.16-.54-.3-1.08-.44-1.63,0-.01,0-.02,0-.03-.1-.41-.19-.83-.28-1.24-.01-.02-.01-.03-.01-.05-.04-.17-.08-.35-.11-.53-.03-.14-.06-.29-.08-.43-.05-.25-.1-.49-.14-.74-.09-.54-.18-1.09-.25-1.64-.02-.15-.04-.3-.06-.45,0-.1-.02-.2-.03-.3-.03-.24-.06-.47-.08-.71-.03-.26-.05-.52-.07-.78,0-.08-.02-.17-.02-.26-.01-.06-.01-.13-.01-.19-.02-.26-.04-.52-.05-.78-.02-.19-.02-.39-.03-.58-.03-.61-.04-1.23-.04-1.85,0-1.51.07-3.05.23-4.62,7.37-1.53,16.71-2.8,27.53-2.75,4.63.03,8.98.29,13.02.72,2.55.26,4.98.59,7.27.96,2.07.32,4.04.69,5.88,1.07.2,1.8.29,3.57.28,5.29v.27Zm49.28-52.37c-1.94,2.85-4.38,4.57-6.36,5.59.6,2.15.9,4.43.85,6.8h-6.88c.27-9.76-8-17.27-16.53-16.52-7.63.65-14.09,7.85-13.76,16.52h-6.88c-.36-12.42,9.21-22.71,20.64-23.41,7.78-.48,15.15,3.56,19.49,9.96,1.6-.66,3.44-1.66,5.3-3.07,3.81-2.94,5.88-6.3,6.88-8.26.2,1.25.97,6.93-2.75,12.39Z" />
  <path class="cls-12" d="m218.29,248.77c.04.5.09,1,.15,1.49-.03-.24-.06-.47-.08-.71-.03-.26-.05-.52-.07-.78Z" />
  <path class="cls-12"
    d="m242.99,281.57c-.09-.02-.19-.03-.28-.05-.08-.02-.16-.03-.24-.05.09.02.19.04.28.05.08.02.16.03.24.05Z" />
  <path class="cls-12" d="m271.74,252.9c-.05.31-.1.62-.16.92-.02.14-.05.27-.08.4.09-.44.17-.88.24-1.32Z" />
  <path class="cls-12"
    d="m180.08,473.32c.01,2.68,0,5.4-.03,8.16-.01.79-.02,1.58-.03,2.37-.02,1.77-.05,3.55-.09,5.35-14.07-4.46-27.57-10.23-40.33-17.17.01-2.61,0-5.11-.04-7.51-.01-.52-.02-1.04-.02-1.55-.02-.7-.03-1.4-.05-2.08-.02-.86-.04-1.7-.06-2.52-.02-.75-.04-1.5-.07-2.23-.03-.74-.05-1.48-.08-2.2-.03-.72-.06-1.42-.09-2.1-.19-4.32-.44-8.5-.71-12.53,4.98,3.2,10.01,4.21,10.36,4.27,7.65,1.45,14.76-.7,20.79-3.75-1,2.95-1.52,6.06-1.52,9.26,0,9.45,4.57,18.02,11.97,24.23Z" />
  <path class="cls-7"
    d="m278.13,319.64c-9,6.96-19.85,11.04-31.54,11.04-12.27,0-23.62-4.5-32.86-12.1.89-1.53,1.63-3.13,2.25-4.77,1.41-3.72,2.16-7.64,2.42-11.59,8.6,2.41,17.57,3.67,26.82,3.67,9.74,0,19.21-1.42,28.23-4.08.18,4.14.83,8.2,2.1,12,.68,2.03,1.52,3.98,2.58,5.83Z" />
  <path class="cls-12"
    d="m374.52,463.69c-12.63,8.08-26.11,14.96-40.26,20.49-.36.13-.72.26-1.08.39-.35-6.99-.64-13.74-.9-20.23,2.45-4.65,3.81-9.81,3.81-15.25,0-3.17-.46-6.24-1.34-9.17,6.77,3.91,16.62,8.18,26.12,5.04,6.87-2.27,10.85-7.52,12.24-9.45.05.86.11,1.71.15,2.56.43,7.67.86,16.23,1.26,25.62Z" />
  <path class="cls-14" d="m246.64,499.97c-1.34.02-2.69.03-4.04.03,1.47,0,2.94-.01,4.41-.02-.13,0-.25,0-.37-.01Z" />
  <path class="cls-14"
    d="m369.8,382.64c-1.03.55-2.13.99-3.27,1.28-1.14.29-2.35.46-3.59.46-3.41,0-6.53-1.19-9-3.16.04.36.05.72.05,1.09,0,7.98-6.48,14.46-14.46,14.46-4.63,0-8.76-2.18-11.39-5.57-.13-.17-.25-.33-.37-.49.02.19.03.4.04.61.01.2.01.42.01.63,0,7.99-6.46,14.46-14.46,14.46-4.81,0-9.08-2.36-11.7-5.99-.11,7.88-6.53,14.25-14.45,14.25-6.02,0-11.18-3.68-13.35-8.93-1.29,6.65-7.15,11.69-14.2,11.69-6.43,0-11.88-4.22-13.76-10.04-1.87,5.82-7.33,10.04-13.77,10.04-7.38,0-13.46-5.55-14.34-12.69-2.27,5.04-7.32,8.55-13.2,8.55-7.77,0-14.12-6.14-14.43-13.85-2.31,4.93-7.31,8.34-13.1,8.34-7.99,0-14.46-6.47-14.46-14.45,0-.41.01-.85.05-1.24-2.61,3.67-6.91,6.05-11.76,6.05-.36,0-.72-.01-1.06-.04h-.13c-.34-.03-.68-.07-1.01-.12-.03,0-.04-.01-.06-.01-.31-.05-.61-.1-.91-.17-.13-.04-.27-.07-.39-.09-.52-.14-1.03-.31-1.53-.5-.18-.06-.36-.12-.52-.21-.47-.19-.91-.39-1.33-.64-.19-.1-.36-.21-.55-.31-.2-.12-.39-.25-.59-.38-.19-.13-.37-.26-.56-.4-.35-.26-.69-.54-1.03-.84-.02-.02-.03-.03-.06-.05-.16-.16-.32-.31-.48-.47-1.45-1.44-2.58-3.17-3.31-5.11-.26-.67-.47-1.38-.61-2.1-1.61,1.13-3.47,1.93-5.49,2.27-.25,1.64-.49,3.27-.74,4.9-5.89,17.19-4.85,32.72,3.16,41.46,1.47,1.58,3.13,2.91,4.79,3.98,4.98,3.2,10.01,4.21,10.36,4.27,7.65,1.45,14.76-.7,20.79-3.75-1,2.95-1.52,6.06-1.52,9.26,0,9.45,4.57,18.02,11.97,24.23,1.81,1.53,3.79,2.91,5.93,4.12.84,4.41,1.51,9.12,1.98,14.16,18.7,5.19,38.36,8.09,58.65,8.37.12.01.24.01.37.01,6.98-.05,13.92-.25,20.8-.66.04,0,.08,0,.11-.01,11.94-.91,23.63-2.73,34.99-5.4,2.88-.66,5.73-1.39,8.57-2.17,1.53-.42,3.07-.86,4.59-1.32.55-.15,1.09-.31,1.63-.48.13-.04.25-.08.38-.12l.8-11.09c5.76-3.73,10.4-8.68,13.4-14.39,2.45-4.65,3.81-9.81,3.81-15.25,0-3.17-.46-6.24-1.34-9.17,6.77,3.91,16.62,8.18,26.12,5.04,6.87-2.27,10.85-7.52,12.24-9.45.07-.07.11-.13.15-.18,8.47-11.71,6.49-31.41-3.46-52.69Zm-119.09,105.69c-11.6,0-22.16-2.3-30.1-6.1,14.95-3.49,26.46-13.84,29.38-26.71,2.64,12.98,13.15,23.65,27.16,28.28-7.4,2.85-16.53,4.53-26.44,4.53Z" />
  <path class="cls-9"
    d="m277.15,483.8c-7.4,2.85-16.53,4.53-26.44,4.53-11.6,0-22.16-2.3-30.1-6.1,14.95-3.49,26.46-13.84,29.38-26.71,2.64,12.98,13.15,23.65,27.16,28.28Z" />
  <path class="cls-3"
    d="m369.8,382.64c-1.03.55-2.13.99-3.27,1.28-1.14.29-2.35.46-3.59.46-3.41,0-6.53-1.19-9-3.16.04.36.05.72.05,1.09,0,7.98-6.48,14.46-14.46,14.46-4.63,0-8.76-2.18-11.39-5.57-.13-.17-.25-.33-.37-.49.02.19.03.4.04.61.01.2.01.42.01.63,0,7.99-6.46,14.46-14.46,14.46-4.81,0-9.08-2.36-11.7-5.99-.11,7.88-6.53,14.25-14.45,14.25-6.02,0-11.18-3.68-13.35-8.93-1.29,6.65-7.15,11.69-14.2,11.69-6.43,0-11.88-4.22-13.76-10.04-1.87,5.82-7.33,10.04-13.77,10.04-7.38,0-13.46-5.55-14.34-12.69-2.27,5.04-7.32,8.55-13.2,8.55-7.77,0-14.12-6.14-14.43-13.85-2.31,4.93-7.31,8.34-13.1,8.34-7.99,0-14.46-6.47-14.46-14.45,0-.41.01-.85.05-1.24-2.61,3.67-6.91,6.05-11.76,6.05-.36,0-.72-.01-1.06-.04h-.13c-.34-.03-.68-.07-1.01-.12-.03,0-.04-.01-.06-.01-.31-.05-.61-.1-.91-.17-.13-.04-.27-.07-.39-.09-.52-.14-1.03-.31-1.53-.5-.18-.06-.36-.12-.52-.21-.47-.19-.91-.39-1.33-.64-.19-.1-.36-.21-.55-.31-.2-.12-.39-.25-.59-.38-.19-.13-.37-.26-.56-.4-.35-.26-.69-.54-1.03-.84-.02-.02-.03-.03-.06-.05-.16-.16-.32-.31-.48-.47-1.45-1.44-2.58-3.17-3.31-5.11-.26-.67-.47-1.38-.61-2.1-1.61,1.13-3.47,1.93-5.49,2.27.33-2.16.66-4.33.98-6.48.71-4.65,1.42-9.3,2.13-13.95.39.34.8.67,1.2,1.01,1.63,1.35,3.24,2.7,4.85,4.03.04-.07.1-.15.14-.22.06.02.1.06.15.07.6.3,1.22.62,1.88.93,5.82,2.9,13.48,6.38,22.74,9.78.15.04.28.1.44.15,7.54,2.75,16.13,5.45,25.68,7.7.11.02.23.06.36.09,8.33,1.98,17.39,3.61,27.09,4.71.04,0,.09,0,.14.02,8.44.95,17.37,1.47,26.74,1.41.07.01.13.01.22,0,1.56,0,3.13-.03,4.7-.08,7.59-.2,14.89-.78,21.88-1.66.22-.01.45-.05.67-.08,9.07-1.14,17.61-2.79,25.58-4.76.03.02.04.02.08-.01,9.58-2.34,18.33-5.14,26.19-8.1h.01c9.18-3.44,17.12-7.09,23.71-10.44.42-.23.84-.44,1.25-.65,4.18-2.16,7.78-4.2,10.79-5.96h0s1.5-1.49,1.5-1.49l5.49,13.71c.67,1.31,1.32,2.63,1.94,3.94Z" />
  <path class="cls-11"
    d="m272.35,245.78v.27c0,.44-.02.88-.04,1.31-.02.53-.05,1.06-.09,1.58-.02.35-.05.7-.09,1.04-.01.09-.01.18-.03.27,0,.09,0,.18-.03.27,0,.08-.01.16-.03.24v.03c0,.07,0,.14-.02.21-.01.11-.03.21-.04.31-.04.36-.09.71-.15,1.06-.03.18-.06.36-.09.53-.07.44-.15.88-.24,1.32-.04.24-.09.48-.15.71-.02.12-.05.24-.08.36-.08.39-.17.76-.27,1.13-.04.19-.09.37-.15.56,0,.07-.03.14-.05.2-.04.13-.07.26-.11.38,0,.02-.01.04-.02.06-.11.4-.23.79-.36,1.18-.15.51-.32,1-.5,1.48-.06.18-.12.36-.19.53-.01.03-.02.05-.03.07-.1.27-.2.54-.31.8-.21.54-.44,1.06-.67,1.57-.02.05-.04.09-.06.14-.45.98-.93,1.92-1.43,2.83-.01.01-.01.02-.02.03-.26.47-.52.92-.8,1.37-.21.35-.43.69-.65,1.03-.22.33-.44.66-.66.97-.05.08-.11.16-.16.23-3.93-3.5-11.11-5.85-19.33-5.85s-15.54,2.39-19.44,5.95c-.23-.31-.45-.62-.67-.94-.09-.13-.18-.25-.26-.38-.04-.06-.08-.12-.12-.18-.2-.3-.4-.6-.59-.91-.22-.35-.44-.71-.65-1.08-.12-.19-.23-.39-.34-.59-.17-.31-.34-.62-.51-.94-.03-.06-.06-.12-.1-.19-.23-.44-.45-.9-.67-1.36-.15-.32-.3-.64-.44-.97-.07-.16-.14-.32-.21-.48-.21-.49-.41-1-.6-1.5-.09-.22-.17-.43-.24-.65-.16-.43-.3-.86-.44-1.29-.12-.36-.23-.72-.34-1.08-.01-.04-.02-.08-.03-.11-.16-.54-.3-1.08-.44-1.63,0-.01,0-.02,0-.03-.1-.41-.19-.83-.28-1.24-.01-.02-.01-.03-.01-.05-.04-.17-.08-.35-.11-.53-.03-.14-.06-.29-.08-.43-.05-.25-.1-.49-.14-.74-.09-.54-.18-1.09-.25-1.64-.02-.15-.04-.3-.06-.45,0-.1-.02-.2-.03-.3-.06-.49-.11-.99-.15-1.49,0-.08-.02-.17-.02-.26-.01-.06-.01-.13-.01-.19-.02-.26-.04-.52-.05-.78-.02-.19-.02-.39-.03-.58-.03-.61-.04-1.23-.04-1.85,0-1.51.07-3.05.23-4.62,7.37-1.53,16.71-2.8,27.53-2.75,4.63.03,8.98.29,13.02.72,2.55.26,4.98.59,7.27.96,2.07.32,4.04.69,5.88,1.07.2,1.8.29,3.57.28,5.29Z" />
  <path class="cls-11" d="m242.75,281.52h-.04c-.08-.02-.16-.03-.24-.05.09.02.19.04.28.05Z" />
  <path class="cls-11"
    d="m272.04,250.76c.02-.08.03-.16.03-.24-.01.11-.02.23-.03.34,0,.04,0,.09-.02.14.01-.07.02-.14.02-.21v-.03Z" />
  <path class="cls-8"
    d="m320.26,163.39c-8.01-6.48-14.68-8.04-19.29-8.27-11.24-.55-20.65,2.76-20.65,2.76-3.76,1.32-7.83,3.28-11.01,1.38-1.33-.8-2.97-2.55-2.75-4.14.88-6.49,33.34-14.5,48.19,0,3.02,2.96,4.65,6.2,5.51,8.27Z" />
  <path class="cls-10"
    d="m321.63,193.61c-1.94,2.85-4.38,4.57-6.36,5.59.6,2.15.9,4.43.85,6.8h-6.88c.27-9.76-8-17.27-16.53-16.52-7.63.65-14.09,7.85-13.76,16.52h-6.88c-.36-12.42,9.21-22.71,20.64-23.41,7.78-.48,15.15,3.56,19.49,9.96,1.6-.66,3.44-1.66,5.3-3.07,3.81-2.94,5.88-6.3,6.88-8.26.2,1.25.97,6.93-2.75,12.39Z" />
  <path class="cls-10"
    d="m216.87,206h-6.89c.34-8.67-6.12-15.87-13.76-16.52-8.53-.75-16.8,6.76-16.53,16.52h-6.88c-.05-2.37.25-4.65.85-6.8-1.98-1.02-4.41-2.74-6.36-5.59-3.71-5.46-2.94-11.14-2.75-12.39,1.01,1.96,3.07,5.32,6.89,8.26,1.85,1.41,3.7,2.41,5.29,3.07,4.34-6.4,11.71-10.44,19.49-9.96,11.44.7,21.01,10.99,20.65,23.41Z" />
  <path class="cls-4"
    d="m264.83,269.85c-.1.14-.2.28-.3.41-.07.09-.13.18-.2.27-.15.2-.3.4-.46.6-.25.32-.5.64-.76.95-.07.08-.13.15-.2.23-.15.18-.31.36-.47.54-.11.13-.22.25-.33.37-.1.11-.19.21-.29.31-.07.08-.15.16-.22.23-.17.18-.34.36-.51.53-.53.53-1.06,1.02-1.59,1.49-.18.16-.36.31-.54.46-.11.09-.21.18-.31.26-.16.13-.32.25-.47.37-.02.02-.04.03-.05.04-.13.1-.26.2-.38.29-.12.09-.24.18-.35.26-.04.04-.08.06-.12.09-.18.13-.36.25-.53.37-.31.22-.63.43-.94.62-.2.13-.41.25-.61.37s-.4.23-.59.34c-.09.05-.18.1-.26.14-.13.07-.26.14-.39.21h-.01s-.03.01-.04.02c-.21.11-.42.21-.63.31-.16.08-.33.15-.5.23-.2.09-.39.17-.59.25-.03.01-.06.02-.08.03-.06.03-.11.05-.16.07-.09.03-.17.06-.25.09-.08.04-.16.06-.24.09-.21.08-.42.15-.62.22-.13.04-.25.08-.38.12-.2.06-.39.12-.58.17-.38.1-.77.2-1.15.27-.17.04-.35.07-.52.1-.21.03-.41.07-.62.09l-.21.03s-.09.01-.14.01c-.06,0-.12.02-.18.02-.07.01-.14.02-.21.02-.16.02-.32.03-.48.03-.16.01-.31.02-.47.02h-.36c-.24,0-.49-.01-.75-.02-.11,0-.22,0-.33-.02-.03,0-.06-.01-.09-.01-.16-.01-.32-.03-.49-.05-.15-.01-.3-.03-.45-.05-.1-.02-.21-.03-.32-.05-.04-.01-.08-.02-.12-.02-.08-.02-.16-.03-.24-.05-.09,0-.19-.03-.28-.05-.13-.02-.28-.05-.42-.09-.11-.02-.22-.05-.34-.08-.17-.03-.34-.08-.51-.13-.09-.02-.18-.04-.26-.07-.22-.06-.44-.13-.67-.2-.09-.03-.17-.06-.26-.09-.09-.03-.18-.06-.26-.09-.03-.01-.06-.02-.09-.04-.05-.02-.1-.03-.15-.05-.08-.03-.16-.06-.24-.09-.1-.03-.2-.07-.3-.12-.43-.16-.87-.35-1.3-.56-.24-.11-.48-.23-.72-.36-.52-.26-1.03-.54-1.55-.86-.2-.12-.4-.24-.6-.37-.63-.4-1.25-.83-1.87-1.3-.1-.08-.21-.16-.31-.24-.31-.23-.61-.48-.91-.73-.2-.17-.4-.34-.6-.52-.1-.09-.2-.18-.3-.27-.89-.8-1.76-1.67-2.6-2.61-.19-.21-.37-.42-.55-.64-.37-.43-.73-.87-1.08-1.32-.17-.23-.35-.46-.52-.69,3.9-3.56,11.14-5.95,19.44-5.95s15.4,2.35,19.33,5.85Z" />
  <path class="cls-4" d="m242.75,281.52h-.04c-.08-.02-.16-.03-.24-.05.09.02.19.04.28.05Z" />
</svg>