<svg xmlns="http://www.w3.org/2000/svg" xmlns:xlink="http://www.w3.org/1999/xlink" width="1000" height="562.5" viewBox="0 0 1000 562.5">
  <defs>
    <clipPath id="clip-Image_placeholder">
      <rect width="1000" height="562.5"/>
    </clipPath>
  </defs>
  <g id="Image_placeholder" data-name="Image placeholder" clip-path="url(#clip-Image_placeholder)">
    <rect width="1000" height="562.5" fill="#ddd"/>
    <path id="image" d="M92.353,3H32.118A30.152,30.152,0,0,0,2,33.117V81.305a29.828,29.828,0,0,0,.916,7.041,6.192,6.192,0,0,0,.265.862,30.079,30.079,0,0,0,28.931,22.215H92.347a30.152,30.152,0,0,0,30.117-30.117V33.117A30.143,30.143,0,0,0,92.353,3ZM32.118,15.047H92.353a18.093,18.093,0,0,1,18.07,18.07V60.741L88.841,39.153a12.092,12.092,0,0,0-17.065.006L44.171,66.764l-3.512-3.517a12.092,12.092,0,0,0-17.065.005L14.06,72.788V33.117A18.074,18.074,0,0,1,32.118,15.047ZM92.353,99.376H32.118A18.089,18.089,0,0,1,15.5,88.383L32.136,71.77,37.8,77.438a9.016,9.016,0,0,0,12.728-.006L80.324,47.676l30.1,30.1v3.529A18.093,18.093,0,0,1,92.353,99.376ZM29.106,39.141a9.035,9.035,0,1,1,9.035,9.035A9.039,9.039,0,0,1,29.106,39.141Z" transform="translate(437.768 224.039)"/>
  </g>
</svg>
