<svg xmlns="http://www.w3.org/2000/svg" xmlns:xlink="http://www.w3.org/1999/xlink" width="50" height="50" viewBox="0 0 50 50">
  <defs>
    <clipPath id="clip-thumbnail-unknown">
      <rect width="50" height="50"/>
    </clipPath>
  </defs>
  <g id="thumbnail-unknown" clip-path="url(#clip-thumbnail-unknown)">
    <rect width="50" height="50" fill="#59637e"/>
    <path id="Subtraction_2" data-name="Subtraction 2" d="M-2493-2253h-.216l-3.63-4.369-5.095,4.369H-2502v-14.944l.007-.207a11.108,11.108,0,0,1,3.5-7.685,11.57,11.57,0,0,1,7.99-3.164,11.567,11.567,0,0,1,7.99,3.164,11.1,11.1,0,0,1,3.5,7.685l.009.213v14.911l-4.073-4.343-2.955,4.369h-.185l-3.371-4.369c0,.007-.123.16-.282.364l-.055.072c-.781,1.005-2.609,3.359-3.076,3.934Zm7.362-16.467a2.192,2.192,0,0,0-2.211,2.167,2.192,2.192,0,0,0,2.211,2.167,2.192,2.192,0,0,0,2.212-2.167A2.192,2.192,0,0,0-2485.635-2269.467Zm-9.731,0a2.192,2.192,0,0,0-2.212,2.167,2.192,2.192,0,0,0,2.212,2.167,2.192,2.192,0,0,0,2.212-2.167A2.192,2.192,0,0,0-2495.366-2269.467Z" transform="translate(2516 2291)" fill="#fff"/>
  </g>
</svg>
