<svg xmlns="http://www.w3.org/2000/svg" xmlns:xlink="http://www.w3.org/1999/xlink" width="50" height="50" viewBox="0 0 50 50">
  <defs>
    <clipPath id="clip-thumbnail-music">
      <rect width="50" height="50"/>
    </clipPath>
  </defs>
  <g id="thumbnail-music" clip-path="url(#clip-thumbnail-music)">
    <rect width="50" height="50" fill="#ac56ac"/>
    <path id="headphones" d="M17.07,2.25A15.087,15.087,0,0,0,2,17.32v7.535a1.507,1.507,0,0,0,3.014,0V17.32a12.056,12.056,0,1,1,24.112,0v7.535a1.507,1.507,0,0,0,3.014,0V17.32A15.087,15.087,0,0,0,17.07,2.25Z" transform="translate(7.93 6.96)" fill="#fff"/>
    <path id="headphones-2" data-name="headphones" d="M26.865,22.594v6.028a3.014,3.014,0,0,1-6.028,0V22.594a3.014,3.014,0,0,1,6.028,0ZM10.288,19.58a3.017,3.017,0,0,0-3.014,3.014v6.028a3.014,3.014,0,0,0,6.028,0V22.594A3.017,3.017,0,0,0,10.288,19.58Z" transform="translate(7.93 6.96)" fill="#fff" opacity="0.7"/>
  </g>
</svg>
